<?xml version="1.0" encoding="utf-8"?>
<!-- Generator: Adobe Illustrator 28.0.0, SVG Export Plug-In . SVG Version: 6.00 Build 0)  -->
<svg version="1.1" id="Calque_1" xmlns="http://www.w3.org/2000/svg" xmlns:xlink="http://www.w3.org/1999/xlink" x="0px" y="0px"
	 viewBox="0 0 62 19" style="enable-background:new 0 0 62 19;" xml:space="preserve">
<style type="text/css">
	.st0{fill:#0065FC;}
</style>
<path class="st0" d="M5.5,0c1.1,0,2,0.3,2.8,0.7c0.8,0.5,1.4,1.1,1.8,1.9c0.4,0.8,0.7,1.7,0.7,2.7c0,0.7-0.1,1.4-0.4,2.1
	c-0.3,0.6-0.6,1.2-1.1,1.7c0.7,0.5,1.2,1.1,1.6,1.9c0.4,0.8,0.6,1.6,0.6,2.5c0,1-0.2,1.9-0.7,2.7c-0.5,0.8-1.1,1.5-1.9,2
	c-0.8,0.5-1.7,0.7-2.6,0.7H0V0H5.5z M2.5,2.5v5.6h3c0.8,0,1.4-0.3,2-0.8c0.5-0.5,0.8-1.2,0.8-2c0-0.8-0.3-1.5-0.8-2
	C7,2.8,6.3,2.5,5.5,2.5H2.5z M2.5,10.7v5.6h3.7c0.8,0,1.4-0.3,2-0.8c0.5-0.5,0.8-1.2,0.8-2c0-0.8-0.3-1.5-0.8-2
	c-0.5-0.5-1.2-0.8-2-0.8H2.5z"/>
<path class="st0" d="M20.8,19c-1,0-1.9-0.2-2.7-0.6c-0.9-0.4-1.6-0.9-2.3-1.6c-0.7-0.7-1.2-1.4-1.6-2.3c-0.4-0.9-0.6-1.8-0.6-2.7
	c0-1,0.2-1.9,0.6-2.8c0.4-0.9,0.9-1.7,1.6-2.3c0.7-0.7,1.4-1.2,2.3-1.5c0.9-0.4,1.8-0.6,2.7-0.6c1,0,1.9,0.2,2.8,0.6
	c0.9,0.4,1.7,0.9,2.3,1.5c0.7,0.7,1.2,1.4,1.5,2.3c0.4,0.9,0.6,1.8,0.6,2.8c0,1-0.2,1.9-0.6,2.7c-0.4,0.9-0.9,1.6-1.5,2.3
	c-0.7,0.7-1.4,1.2-2.3,1.6C22.8,18.8,21.8,19,20.8,19z M20.8,7.1c-1.3,0-2.4,0.5-3.3,1.4c-0.4,0.4-0.8,0.9-1,1.5
	c-0.2,0.6-0.4,1.2-0.4,1.8c0,0.6,0.1,1.2,0.4,1.8c0.2,0.6,0.6,1.1,1,1.5c0.4,0.4,0.9,0.8,1.5,1c0.6,0.2,1.2,0.4,1.8,0.4
	c0.6,0,1.2-0.1,1.8-0.4c0.6-0.2,1.1-0.6,1.5-1s0.7-0.9,1-1.5c0.2-0.6,0.4-1.2,0.4-1.8c0-0.6-0.1-1.2-0.4-1.8c-0.2-0.6-0.6-1.1-1-1.5
	c-0.4-0.4-0.9-0.8-1.5-1C22.1,7.3,21.5,7.1,20.8,7.1z"/>
<path class="st0" d="M36.9,19c-1,0-1.9-0.2-2.7-0.6c-0.9-0.4-1.6-0.9-2.3-1.6c-0.7-0.7-1.2-1.4-1.6-2.3c-0.4-0.9-0.6-1.8-0.6-2.7
	c0-1,0.2-1.9,0.6-2.8c0.4-0.9,0.9-1.7,1.6-2.3c0.7-0.7,1.4-1.2,2.3-1.5c0.9-0.4,1.8-0.6,2.7-0.6c1,0,1.9,0.2,2.8,0.6
	c0.9,0.4,1.7,0.9,2.3,1.5c0.7,0.7,1.2,1.4,1.5,2.3c0.4,0.9,0.6,1.8,0.6,2.8c0,1-0.2,1.9-0.6,2.7c-0.4,0.9-0.9,1.6-1.5,2.3
	c-0.7,0.7-1.4,1.2-2.3,1.6C38.9,18.8,37.9,19,36.9,19z M36.9,7.1c-1.3,0-2.4,0.5-3.3,1.4c-0.4,0.4-0.8,0.9-1,1.5
	c-0.2,0.6-0.4,1.2-0.4,1.8c0,0.6,0.1,1.2,0.4,1.8c0.2,0.6,0.6,1.1,1,1.5s0.9,0.8,1.5,1c0.6,0.2,1.2,0.4,1.8,0.4
	c0.6,0,1.2-0.1,1.8-0.4c0.6-0.2,1.1-0.6,1.5-1c0.4-0.4,0.7-0.9,1-1.5c0.2-0.6,0.4-1.2,0.4-1.8c0-0.6-0.1-1.2-0.4-1.8
	c-0.2-0.6-0.6-1.1-1-1.5c-0.4-0.4-0.9-0.8-1.5-1C38.2,7.3,37.6,7.1,36.9,7.1z"/>
<path class="st0" d="M53.5,18.9l-4.3-5.2v5.2h-2.5V0h2.5v8.1L53,4.5h3.7L50,10.8l6.7,8.1H53.5z"/>
<path class="st0" d="M59.8,2.7c-0.4,0-0.7-0.1-0.9-0.4c-0.2-0.3-0.4-0.6-0.4-0.9c0-0.4,0.1-0.7,0.4-0.9c0.3-0.3,0.6-0.4,0.9-0.4
	c0.4,0,0.7,0.1,0.9,0.4C61,0.7,61.1,1,61.1,1.4c0,0.4-0.1,0.7-0.4,0.9C60.4,2.5,60.1,2.7,59.8,2.7z M58.6,18.9V4.7H61v14.2H58.6z"/>
<g>
	<path class="st0" d="M38.4,10.1c0,0.8-0.6,1.4-1.4,1.4c-0.8,0-1.4-0.6-1.4-1.4c0-0.8,0.6-1.4,1.4-1.4C37.8,8.6,38.4,9.3,38.4,10.1z
		"/>
	<path class="st0" d="M35.5,14.8l0.7-5.1h1.6l0.6,5.1H35.5z"/>
</g>
</svg>
